<mxfile host="app.diagrams.net" modified="2023-08-03T21:55:58.165Z" agent="Mozilla/5.0 (Macintosh; Intel Mac OS X 10_15_7) AppleWebKit/537.36 (KHTML, like Gecko) Chrome/114.0.0.0 Safari/537.36" etag="K333HagnTgmduQnkvKq7" version="21.5.2" type="github">
  <diagram id="R2lEEEUBdFMjLlhIrx00" name="Page-1">
    <mxGraphModel dx="1618" dy="1507" grid="0" gridSize="10" guides="1" tooltips="1" connect="1" arrows="1" fold="1" page="0" pageScale="1" pageWidth="850" pageHeight="1100" math="0" shadow="0" extFonts="Permanent Marker^https://fonts.googleapis.com/css?family=Permanent+Marker">
      <root>
        <mxCell id="0" />
        <mxCell id="1" parent="0" />
        <mxCell id="C-vyLk0tnHw3VtMMgP7b-1" value="" style="edgeStyle=entityRelationEdgeStyle;endArrow=ERzeroToMany;startArrow=ERone;endFill=1;startFill=0;entryX=0;entryY=0.5;entryDx=0;entryDy=0;exitX=1;exitY=0.5;exitDx=0;exitDy=0;" parent="1" source="C-vyLk0tnHw3VtMMgP7b-27" target="C-vyLk0tnHw3VtMMgP7b-3" edge="1">
          <mxGeometry width="100" height="100" relative="1" as="geometry">
            <mxPoint x="340" y="720" as="sourcePoint" />
            <mxPoint x="440" y="620" as="targetPoint" />
          </mxGeometry>
        </mxCell>
        <mxCell id="C-vyLk0tnHw3VtMMgP7b-12" value="" style="edgeStyle=entityRelationEdgeStyle;endArrow=ERzeroToMany;startArrow=ERone;endFill=1;startFill=0;entryX=1;entryY=0.5;entryDx=0;entryDy=0;exitX=1;exitY=0.5;exitDx=0;exitDy=0;" parent="1" source="YFGoI8jdiH5YfzTE92s3-66" target="C-vyLk0tnHw3VtMMgP7b-14" edge="1">
          <mxGeometry width="100" height="100" relative="1" as="geometry">
            <mxPoint x="400" y="180" as="sourcePoint" />
            <mxPoint x="460" y="205" as="targetPoint" />
          </mxGeometry>
        </mxCell>
        <mxCell id="C-vyLk0tnHw3VtMMgP7b-2" value="book" style="shape=table;startSize=30;container=1;collapsible=1;childLayout=tableLayout;fixedRows=1;rowLines=0;fontStyle=1;align=center;resizeLast=1;" parent="1" vertex="1">
          <mxGeometry x="458" y="90" width="240" height="350" as="geometry" />
        </mxCell>
        <mxCell id="C-vyLk0tnHw3VtMMgP7b-3" value="" style="shape=partialRectangle;collapsible=0;dropTarget=0;pointerEvents=0;fillColor=none;points=[[0,0.5],[1,0.5]];portConstraint=eastwest;top=0;left=0;right=0;bottom=1;" parent="C-vyLk0tnHw3VtMMgP7b-2" vertex="1">
          <mxGeometry y="30" width="240" height="30" as="geometry" />
        </mxCell>
        <mxCell id="C-vyLk0tnHw3VtMMgP7b-4" value="PK" style="shape=partialRectangle;overflow=hidden;connectable=0;fillColor=none;top=0;left=0;bottom=0;right=0;fontStyle=1;" parent="C-vyLk0tnHw3VtMMgP7b-3" vertex="1">
          <mxGeometry width="30" height="30" as="geometry">
            <mxRectangle width="30" height="30" as="alternateBounds" />
          </mxGeometry>
        </mxCell>
        <mxCell id="C-vyLk0tnHw3VtMMgP7b-5" value="bookid str" style="shape=partialRectangle;overflow=hidden;connectable=0;fillColor=none;top=0;left=0;bottom=0;right=0;align=left;spacingLeft=6;fontStyle=5;" parent="C-vyLk0tnHw3VtMMgP7b-3" vertex="1">
          <mxGeometry x="30" width="210" height="30" as="geometry">
            <mxRectangle width="210" height="30" as="alternateBounds" />
          </mxGeometry>
        </mxCell>
        <mxCell id="C-vyLk0tnHw3VtMMgP7b-9" value="" style="shape=partialRectangle;collapsible=0;dropTarget=0;pointerEvents=0;fillColor=none;points=[[0,0.5],[1,0.5]];portConstraint=eastwest;top=0;left=0;right=0;bottom=0;" parent="C-vyLk0tnHw3VtMMgP7b-2" vertex="1">
          <mxGeometry y="60" width="240" height="280" as="geometry" />
        </mxCell>
        <mxCell id="C-vyLk0tnHw3VtMMgP7b-10" value="" style="shape=partialRectangle;overflow=hidden;connectable=0;fillColor=none;top=0;left=0;bottom=0;right=0;" parent="C-vyLk0tnHw3VtMMgP7b-9" vertex="1">
          <mxGeometry width="30" height="280" as="geometry">
            <mxRectangle width="30" height="280" as="alternateBounds" />
          </mxGeometry>
        </mxCell>
        <mxCell id="C-vyLk0tnHw3VtMMgP7b-11" value="title str&#xa;description - str&#xa;language - str&#xa;isbn - str&#xa;format - str&#xa;edition - str&#xa;pagesÂ  - int&#xa;publisher - str&#xa;pub_date - date&#xa;first_pub_date - date&#xa;num_ratings - int&#xa;like_percent - int&#xa;setting - str&#xa;cover_url - str&#xa;bbe_score - int&#xa;bbe_votes - int&#xa;price - float" style="shape=partialRectangle;overflow=hidden;connectable=0;fillColor=none;top=0;left=0;bottom=0;right=0;align=left;spacingLeft=6;verticalAlign=top;" parent="C-vyLk0tnHw3VtMMgP7b-9" vertex="1">
          <mxGeometry x="30" width="210" height="280" as="geometry">
            <mxRectangle width="210" height="280" as="alternateBounds" />
          </mxGeometry>
        </mxCell>
        <mxCell id="C-vyLk0tnHw3VtMMgP7b-13" value="series" style="shape=table;startSize=30;container=1;collapsible=1;childLayout=tableLayout;fixedRows=1;rowLines=0;fontStyle=1;align=center;resizeLast=1;" parent="1" vertex="1">
          <mxGeometry x="780" y="310" width="159.75" height="130" as="geometry" />
        </mxCell>
        <mxCell id="C-vyLk0tnHw3VtMMgP7b-14" value="" style="shape=partialRectangle;collapsible=0;dropTarget=0;pointerEvents=0;fillColor=none;points=[[0,0.5],[1,0.5]];portConstraint=eastwest;top=0;left=0;right=0;bottom=1;" parent="C-vyLk0tnHw3VtMMgP7b-13" vertex="1">
          <mxGeometry y="30" width="159.75" height="30" as="geometry" />
        </mxCell>
        <mxCell id="C-vyLk0tnHw3VtMMgP7b-15" value="PK" style="shape=partialRectangle;overflow=hidden;connectable=0;fillColor=none;top=0;left=0;bottom=0;right=0;fontStyle=1;" parent="C-vyLk0tnHw3VtMMgP7b-14" vertex="1">
          <mxGeometry width="30" height="30" as="geometry">
            <mxRectangle width="30" height="30" as="alternateBounds" />
          </mxGeometry>
        </mxCell>
        <mxCell id="C-vyLk0tnHw3VtMMgP7b-16" value="series_id" style="shape=partialRectangle;overflow=hidden;connectable=0;fillColor=none;top=0;left=0;bottom=0;right=0;align=left;spacingLeft=6;fontStyle=5;" parent="C-vyLk0tnHw3VtMMgP7b-14" vertex="1">
          <mxGeometry x="30" width="129.75" height="30" as="geometry">
            <mxRectangle width="129.75" height="30" as="alternateBounds" />
          </mxGeometry>
        </mxCell>
        <mxCell id="C-vyLk0tnHw3VtMMgP7b-17" value="" style="shape=partialRectangle;collapsible=0;dropTarget=0;pointerEvents=0;fillColor=none;points=[[0,0.5],[1,0.5]];portConstraint=eastwest;top=0;left=0;right=0;bottom=0;" parent="C-vyLk0tnHw3VtMMgP7b-13" vertex="1">
          <mxGeometry y="60" width="159.75" height="30" as="geometry" />
        </mxCell>
        <mxCell id="C-vyLk0tnHw3VtMMgP7b-18" value="" style="shape=partialRectangle;overflow=hidden;connectable=0;fillColor=none;top=0;left=0;bottom=0;right=0;" parent="C-vyLk0tnHw3VtMMgP7b-17" vertex="1">
          <mxGeometry width="30" height="30" as="geometry">
            <mxRectangle width="30" height="30" as="alternateBounds" />
          </mxGeometry>
        </mxCell>
        <mxCell id="C-vyLk0tnHw3VtMMgP7b-19" value="series_name - str" style="shape=partialRectangle;overflow=hidden;connectable=0;fillColor=none;top=0;left=0;bottom=0;right=0;align=left;spacingLeft=6;" parent="C-vyLk0tnHw3VtMMgP7b-17" vertex="1">
          <mxGeometry x="30" width="129.75" height="30" as="geometry">
            <mxRectangle width="129.75" height="30" as="alternateBounds" />
          </mxGeometry>
        </mxCell>
        <mxCell id="C-vyLk0tnHw3VtMMgP7b-20" value="" style="shape=partialRectangle;collapsible=0;dropTarget=0;pointerEvents=0;fillColor=none;points=[[0,0.5],[1,0.5]];portConstraint=eastwest;top=0;left=0;right=0;bottom=0;" parent="C-vyLk0tnHw3VtMMgP7b-13" vertex="1">
          <mxGeometry y="90" width="159.75" height="30" as="geometry" />
        </mxCell>
        <mxCell id="C-vyLk0tnHw3VtMMgP7b-21" value="" style="shape=partialRectangle;overflow=hidden;connectable=0;fillColor=none;top=0;left=0;bottom=0;right=0;" parent="C-vyLk0tnHw3VtMMgP7b-20" vertex="1">
          <mxGeometry width="30" height="30" as="geometry">
            <mxRectangle width="30" height="30" as="alternateBounds" />
          </mxGeometry>
        </mxCell>
        <mxCell id="C-vyLk0tnHw3VtMMgP7b-22" value="series_num - int" style="shape=partialRectangle;overflow=hidden;connectable=0;fillColor=none;top=0;left=0;bottom=0;right=0;align=left;spacingLeft=6;" parent="C-vyLk0tnHw3VtMMgP7b-20" vertex="1">
          <mxGeometry x="30" width="129.75" height="30" as="geometry">
            <mxRectangle width="129.75" height="30" as="alternateBounds" />
          </mxGeometry>
        </mxCell>
        <mxCell id="C-vyLk0tnHw3VtMMgP7b-23" value="book_creator" style="shape=table;startSize=30;container=1;collapsible=1;childLayout=tableLayout;fixedRows=1;rowLines=0;fontStyle=1;align=center;resizeLast=1;" parent="1" vertex="1">
          <mxGeometry x="197" y="43" width="169.75" height="100" as="geometry" />
        </mxCell>
        <mxCell id="C-vyLk0tnHw3VtMMgP7b-24" value="" style="shape=partialRectangle;collapsible=0;dropTarget=0;pointerEvents=0;fillColor=none;points=[[0,0.5],[1,0.5]];portConstraint=eastwest;top=0;left=0;right=0;bottom=1;" parent="C-vyLk0tnHw3VtMMgP7b-23" vertex="1">
          <mxGeometry y="30" width="169.75" height="30" as="geometry" />
        </mxCell>
        <mxCell id="C-vyLk0tnHw3VtMMgP7b-25" value="FK" style="shape=partialRectangle;overflow=hidden;connectable=0;fillColor=none;top=0;left=0;bottom=0;right=0;fontStyle=0;" parent="C-vyLk0tnHw3VtMMgP7b-24" vertex="1">
          <mxGeometry width="30" height="30" as="geometry">
            <mxRectangle width="30" height="30" as="alternateBounds" />
          </mxGeometry>
        </mxCell>
        <mxCell id="C-vyLk0tnHw3VtMMgP7b-26" value="creator name" style="shape=partialRectangle;overflow=hidden;connectable=0;fillColor=none;top=0;left=0;bottom=0;right=0;align=left;spacingLeft=6;fontStyle=4;" parent="C-vyLk0tnHw3VtMMgP7b-24" vertex="1">
          <mxGeometry x="30" width="139.75" height="30" as="geometry">
            <mxRectangle width="139.75" height="30" as="alternateBounds" />
          </mxGeometry>
        </mxCell>
        <mxCell id="C-vyLk0tnHw3VtMMgP7b-27" value="" style="shape=partialRectangle;collapsible=0;dropTarget=0;pointerEvents=0;fillColor=none;points=[[0,0.5],[1,0.5]];portConstraint=eastwest;top=0;left=0;right=0;bottom=0;" parent="C-vyLk0tnHw3VtMMgP7b-23" vertex="1">
          <mxGeometry y="60" width="169.75" height="30" as="geometry" />
        </mxCell>
        <mxCell id="C-vyLk0tnHw3VtMMgP7b-28" value="FK" style="shape=partialRectangle;overflow=hidden;connectable=0;fillColor=none;top=0;left=0;bottom=0;right=0;" parent="C-vyLk0tnHw3VtMMgP7b-27" vertex="1">
          <mxGeometry width="30" height="30" as="geometry">
            <mxRectangle width="30" height="30" as="alternateBounds" />
          </mxGeometry>
        </mxCell>
        <mxCell id="C-vyLk0tnHw3VtMMgP7b-29" value="book_id" style="shape=partialRectangle;overflow=hidden;connectable=0;fillColor=none;top=0;left=0;bottom=0;right=0;align=left;spacingLeft=6;" parent="C-vyLk0tnHw3VtMMgP7b-27" vertex="1">
          <mxGeometry x="30" width="139.75" height="30" as="geometry">
            <mxRectangle width="139.75" height="30" as="alternateBounds" />
          </mxGeometry>
        </mxCell>
        <mxCell id="YFGoI8jdiH5YfzTE92s3-3" value="creator" style="shape=table;startSize=30;container=1;collapsible=1;childLayout=tableLayout;fixedRows=1;rowLines=0;fontStyle=1;align=center;resizeLast=1;" vertex="1" parent="1">
          <mxGeometry x="-59" y="85" width="163.75" height="95.75" as="geometry" />
        </mxCell>
        <mxCell id="YFGoI8jdiH5YfzTE92s3-4" value="" style="shape=partialRectangle;collapsible=0;dropTarget=0;pointerEvents=0;fillColor=none;points=[[0,0.5],[1,0.5]];portConstraint=eastwest;top=0;left=0;right=0;bottom=1;" vertex="1" parent="YFGoI8jdiH5YfzTE92s3-3">
          <mxGeometry y="30" width="163.75" height="30" as="geometry" />
        </mxCell>
        <mxCell id="YFGoI8jdiH5YfzTE92s3-5" value="PK" style="shape=partialRectangle;overflow=hidden;connectable=0;fillColor=none;top=0;left=0;bottom=0;right=0;fontStyle=1;" vertex="1" parent="YFGoI8jdiH5YfzTE92s3-4">
          <mxGeometry width="30" height="30" as="geometry">
            <mxRectangle width="30" height="30" as="alternateBounds" />
          </mxGeometry>
        </mxCell>
        <mxCell id="YFGoI8jdiH5YfzTE92s3-6" value="creator name" style="shape=partialRectangle;overflow=hidden;connectable=0;fillColor=none;top=0;left=0;bottom=0;right=0;align=left;spacingLeft=6;fontStyle=5;" vertex="1" parent="YFGoI8jdiH5YfzTE92s3-4">
          <mxGeometry x="30" width="133.75" height="30" as="geometry">
            <mxRectangle width="133.75" height="30" as="alternateBounds" />
          </mxGeometry>
        </mxCell>
        <mxCell id="YFGoI8jdiH5YfzTE92s3-7" value="" style="shape=partialRectangle;collapsible=0;dropTarget=0;pointerEvents=0;fillColor=none;points=[[0,0.5],[1,0.5]];portConstraint=eastwest;top=0;left=0;right=0;bottom=0;" vertex="1" parent="YFGoI8jdiH5YfzTE92s3-3">
          <mxGeometry y="60" width="163.75" height="26" as="geometry" />
        </mxCell>
        <mxCell id="YFGoI8jdiH5YfzTE92s3-8" value="" style="shape=partialRectangle;overflow=hidden;connectable=0;fillColor=none;top=0;left=0;bottom=0;right=0;" vertex="1" parent="YFGoI8jdiH5YfzTE92s3-7">
          <mxGeometry width="30" height="26" as="geometry">
            <mxRectangle width="30" height="26" as="alternateBounds" />
          </mxGeometry>
        </mxCell>
        <mxCell id="YFGoI8jdiH5YfzTE92s3-9" value="role - str" style="shape=partialRectangle;overflow=hidden;connectable=0;fillColor=none;top=0;left=0;bottom=0;right=0;align=left;spacingLeft=6;" vertex="1" parent="YFGoI8jdiH5YfzTE92s3-7">
          <mxGeometry x="30" width="133.75" height="26" as="geometry">
            <mxRectangle width="133.75" height="26" as="alternateBounds" />
          </mxGeometry>
        </mxCell>
        <mxCell id="YFGoI8jdiH5YfzTE92s3-17" value="" style="edgeStyle=entityRelationEdgeStyle;endArrow=ERzeroToMany;startArrow=ERone;endFill=1;startFill=0;exitX=1;exitY=0.5;exitDx=0;exitDy=0;entryX=0;entryY=0.5;entryDx=0;entryDy=0;" edge="1" parent="1" source="YFGoI8jdiH5YfzTE92s3-4" target="C-vyLk0tnHw3VtMMgP7b-24">
          <mxGeometry width="100" height="100" relative="1" as="geometry">
            <mxPoint x="65" y="377" as="sourcePoint" />
            <mxPoint x="59" y="193" as="targetPoint" />
          </mxGeometry>
        </mxCell>
        <mxCell id="YFGoI8jdiH5YfzTE92s3-26" value="award" style="shape=table;startSize=30;container=1;collapsible=1;childLayout=tableLayout;fixedRows=1;rowLines=0;fontStyle=1;align=center;resizeLast=1;" vertex="1" parent="1">
          <mxGeometry x="-29" y="220" width="177.75" height="105.75" as="geometry" />
        </mxCell>
        <mxCell id="YFGoI8jdiH5YfzTE92s3-27" value="" style="shape=partialRectangle;collapsible=0;dropTarget=0;pointerEvents=0;fillColor=none;points=[[0,0.5],[1,0.5]];portConstraint=eastwest;top=0;left=0;right=0;bottom=1;" vertex="1" parent="YFGoI8jdiH5YfzTE92s3-26">
          <mxGeometry y="30" width="177.75" height="30" as="geometry" />
        </mxCell>
        <mxCell id="YFGoI8jdiH5YfzTE92s3-28" value="PK" style="shape=partialRectangle;overflow=hidden;connectable=0;fillColor=none;top=0;left=0;bottom=0;right=0;fontStyle=1;" vertex="1" parent="YFGoI8jdiH5YfzTE92s3-27">
          <mxGeometry width="30" height="30" as="geometry">
            <mxRectangle width="30" height="30" as="alternateBounds" />
          </mxGeometry>
        </mxCell>
        <mxCell id="YFGoI8jdiH5YfzTE92s3-29" value="award_id" style="shape=partialRectangle;overflow=hidden;connectable=0;fillColor=none;top=0;left=0;bottom=0;right=0;align=left;spacingLeft=6;fontStyle=5;" vertex="1" parent="YFGoI8jdiH5YfzTE92s3-27">
          <mxGeometry x="30" width="147.75" height="30" as="geometry">
            <mxRectangle width="147.75" height="30" as="alternateBounds" />
          </mxGeometry>
        </mxCell>
        <mxCell id="YFGoI8jdiH5YfzTE92s3-30" value="" style="shape=partialRectangle;collapsible=0;dropTarget=0;pointerEvents=0;fillColor=none;points=[[0,0.5],[1,0.5]];portConstraint=eastwest;top=0;left=0;right=0;bottom=0;" vertex="1" parent="YFGoI8jdiH5YfzTE92s3-26">
          <mxGeometry y="60" width="177.75" height="39" as="geometry" />
        </mxCell>
        <mxCell id="YFGoI8jdiH5YfzTE92s3-31" value="" style="shape=partialRectangle;overflow=hidden;connectable=0;fillColor=none;top=0;left=0;bottom=0;right=0;" vertex="1" parent="YFGoI8jdiH5YfzTE92s3-30">
          <mxGeometry width="30" height="39" as="geometry">
            <mxRectangle width="30" height="39" as="alternateBounds" />
          </mxGeometry>
        </mxCell>
        <mxCell id="YFGoI8jdiH5YfzTE92s3-32" value="award - str" style="shape=partialRectangle;overflow=hidden;connectable=0;fillColor=none;top=0;left=0;bottom=0;right=0;align=left;spacingLeft=6;verticalAlign=top;" vertex="1" parent="YFGoI8jdiH5YfzTE92s3-30">
          <mxGeometry x="30" width="147.75" height="39" as="geometry">
            <mxRectangle width="147.75" height="39" as="alternateBounds" />
          </mxGeometry>
        </mxCell>
        <mxCell id="YFGoI8jdiH5YfzTE92s3-33" value="" style="edgeStyle=entityRelationEdgeStyle;endArrow=ERone;startArrow=ERmany;endFill=0;startFill=0;entryX=0;entryY=0.5;entryDx=0;entryDy=0;exitX=1;exitY=0.5;exitDx=0;exitDy=0;" edge="1" parent="1" source="YFGoI8jdiH5YfzTE92s3-23" target="C-vyLk0tnHw3VtMMgP7b-3">
          <mxGeometry width="100" height="100" relative="1" as="geometry">
            <mxPoint x="453" as="sourcePoint" />
            <mxPoint x="468" y="145" as="targetPoint" />
          </mxGeometry>
        </mxCell>
        <mxCell id="YFGoI8jdiH5YfzTE92s3-34" value="" style="edgeStyle=entityRelationEdgeStyle;endArrow=ERzeroToMany;startArrow=ERone;endFill=1;startFill=0;entryX=1;entryY=0.5;entryDx=0;entryDy=0;exitX=0;exitY=0.5;exitDx=0;exitDy=0;" edge="1" parent="1" source="YFGoI8jdiH5YfzTE92s3-20" target="YFGoI8jdiH5YfzTE92s3-27">
          <mxGeometry width="100" height="100" relative="1" as="geometry">
            <mxPoint x="463" y="10" as="sourcePoint" />
            <mxPoint x="478" y="155" as="targetPoint" />
          </mxGeometry>
        </mxCell>
        <mxCell id="YFGoI8jdiH5YfzTE92s3-36" value="book_genre" style="shape=table;startSize=30;container=1;collapsible=1;childLayout=tableLayout;fixedRows=1;rowLines=0;fontStyle=1;align=center;resizeLast=1;" vertex="1" parent="1">
          <mxGeometry x="528.25" y="-36" width="169.75" height="100" as="geometry" />
        </mxCell>
        <mxCell id="YFGoI8jdiH5YfzTE92s3-37" value="" style="shape=partialRectangle;collapsible=0;dropTarget=0;pointerEvents=0;fillColor=none;points=[[0,0.5],[1,0.5]];portConstraint=eastwest;top=0;left=0;right=0;bottom=1;" vertex="1" parent="YFGoI8jdiH5YfzTE92s3-36">
          <mxGeometry y="30" width="169.75" height="30" as="geometry" />
        </mxCell>
        <mxCell id="YFGoI8jdiH5YfzTE92s3-38" value="FK" style="shape=partialRectangle;overflow=hidden;connectable=0;fillColor=none;top=0;left=0;bottom=0;right=0;fontStyle=0;" vertex="1" parent="YFGoI8jdiH5YfzTE92s3-37">
          <mxGeometry width="30" height="30" as="geometry">
            <mxRectangle width="30" height="30" as="alternateBounds" />
          </mxGeometry>
        </mxCell>
        <mxCell id="YFGoI8jdiH5YfzTE92s3-39" value="genre_id" style="shape=partialRectangle;overflow=hidden;connectable=0;fillColor=none;top=0;left=0;bottom=0;right=0;align=left;spacingLeft=6;fontStyle=4;" vertex="1" parent="YFGoI8jdiH5YfzTE92s3-37">
          <mxGeometry x="30" width="139.75" height="30" as="geometry">
            <mxRectangle width="139.75" height="30" as="alternateBounds" />
          </mxGeometry>
        </mxCell>
        <mxCell id="YFGoI8jdiH5YfzTE92s3-40" value="" style="shape=partialRectangle;collapsible=0;dropTarget=0;pointerEvents=0;fillColor=none;points=[[0,0.5],[1,0.5]];portConstraint=eastwest;top=0;left=0;right=0;bottom=0;" vertex="1" parent="YFGoI8jdiH5YfzTE92s3-36">
          <mxGeometry y="60" width="169.75" height="30" as="geometry" />
        </mxCell>
        <mxCell id="YFGoI8jdiH5YfzTE92s3-41" value="FK" style="shape=partialRectangle;overflow=hidden;connectable=0;fillColor=none;top=0;left=0;bottom=0;right=0;" vertex="1" parent="YFGoI8jdiH5YfzTE92s3-40">
          <mxGeometry width="30" height="30" as="geometry">
            <mxRectangle width="30" height="30" as="alternateBounds" />
          </mxGeometry>
        </mxCell>
        <mxCell id="YFGoI8jdiH5YfzTE92s3-42" value="book_id" style="shape=partialRectangle;overflow=hidden;connectable=0;fillColor=none;top=0;left=0;bottom=0;right=0;align=left;spacingLeft=6;" vertex="1" parent="YFGoI8jdiH5YfzTE92s3-40">
          <mxGeometry x="30" width="139.75" height="30" as="geometry">
            <mxRectangle width="139.75" height="30" as="alternateBounds" />
          </mxGeometry>
        </mxCell>
        <mxCell id="YFGoI8jdiH5YfzTE92s3-43" value="" style="edgeStyle=entityRelationEdgeStyle;endArrow=ERzeroToMany;startArrow=ERone;endFill=1;startFill=0;entryX=1;entryY=0.5;entryDx=0;entryDy=0;exitX=1;exitY=0.5;exitDx=0;exitDy=0;" edge="1" parent="1" source="C-vyLk0tnHw3VtMMgP7b-3" target="YFGoI8jdiH5YfzTE92s3-40">
          <mxGeometry width="100" height="100" relative="1" as="geometry">
            <mxPoint x="708" y="145" as="sourcePoint" />
            <mxPoint x="778" y="241" as="targetPoint" />
          </mxGeometry>
        </mxCell>
        <mxCell id="YFGoI8jdiH5YfzTE92s3-44" value="genre" style="shape=table;startSize=30;container=1;collapsible=1;childLayout=tableLayout;fixedRows=1;rowLines=0;fontStyle=1;align=center;resizeLast=1;" vertex="1" parent="1">
          <mxGeometry x="528.25" y="-171" width="169.75" height="100" as="geometry" />
        </mxCell>
        <mxCell id="YFGoI8jdiH5YfzTE92s3-45" value="" style="shape=partialRectangle;collapsible=0;dropTarget=0;pointerEvents=0;fillColor=none;points=[[0,0.5],[1,0.5]];portConstraint=eastwest;top=0;left=0;right=0;bottom=1;" vertex="1" parent="YFGoI8jdiH5YfzTE92s3-44">
          <mxGeometry y="30" width="169.75" height="30" as="geometry" />
        </mxCell>
        <mxCell id="YFGoI8jdiH5YfzTE92s3-46" value="PK" style="shape=partialRectangle;overflow=hidden;connectable=0;fillColor=none;top=0;left=0;bottom=0;right=0;fontStyle=1;" vertex="1" parent="YFGoI8jdiH5YfzTE92s3-45">
          <mxGeometry width="30" height="30" as="geometry">
            <mxRectangle width="30" height="30" as="alternateBounds" />
          </mxGeometry>
        </mxCell>
        <mxCell id="YFGoI8jdiH5YfzTE92s3-47" value="genre_id" style="shape=partialRectangle;overflow=hidden;connectable=0;fillColor=none;top=0;left=0;bottom=0;right=0;align=left;spacingLeft=6;fontStyle=5;" vertex="1" parent="YFGoI8jdiH5YfzTE92s3-45">
          <mxGeometry x="30" width="139.75" height="30" as="geometry">
            <mxRectangle width="139.75" height="30" as="alternateBounds" />
          </mxGeometry>
        </mxCell>
        <mxCell id="YFGoI8jdiH5YfzTE92s3-48" value="" style="shape=partialRectangle;collapsible=0;dropTarget=0;pointerEvents=0;fillColor=none;points=[[0,0.5],[1,0.5]];portConstraint=eastwest;top=0;left=0;right=0;bottom=0;" vertex="1" parent="YFGoI8jdiH5YfzTE92s3-44">
          <mxGeometry y="60" width="169.75" height="30" as="geometry" />
        </mxCell>
        <mxCell id="YFGoI8jdiH5YfzTE92s3-49" value="" style="shape=partialRectangle;overflow=hidden;connectable=0;fillColor=none;top=0;left=0;bottom=0;right=0;" vertex="1" parent="YFGoI8jdiH5YfzTE92s3-48">
          <mxGeometry width="30" height="30" as="geometry">
            <mxRectangle width="30" height="30" as="alternateBounds" />
          </mxGeometry>
        </mxCell>
        <mxCell id="YFGoI8jdiH5YfzTE92s3-50" value="genre" style="shape=partialRectangle;overflow=hidden;connectable=0;fillColor=none;top=0;left=0;bottom=0;right=0;align=left;spacingLeft=6;" vertex="1" parent="YFGoI8jdiH5YfzTE92s3-48">
          <mxGeometry x="30" width="139.75" height="30" as="geometry">
            <mxRectangle width="139.75" height="30" as="alternateBounds" />
          </mxGeometry>
        </mxCell>
        <mxCell id="YFGoI8jdiH5YfzTE92s3-51" value="" style="edgeStyle=entityRelationEdgeStyle;endArrow=ERzeroToMany;startArrow=ERone;endFill=1;startFill=0;exitX=1;exitY=0.5;exitDx=0;exitDy=0;" edge="1" parent="1" source="YFGoI8jdiH5YfzTE92s3-37" target="YFGoI8jdiH5YfzTE92s3-48">
          <mxGeometry width="100" height="100" relative="1" as="geometry">
            <mxPoint x="708" y="145" as="sourcePoint" />
            <mxPoint x="708" y="49" as="targetPoint" />
          </mxGeometry>
        </mxCell>
        <mxCell id="YFGoI8jdiH5YfzTE92s3-52" value="character" style="shape=table;startSize=30;container=1;collapsible=1;childLayout=tableLayout;fixedRows=1;rowLines=0;fontStyle=1;align=center;resizeLast=1;" vertex="1" parent="1">
          <mxGeometry x="836" y="18" width="159.75" height="100" as="geometry" />
        </mxCell>
        <mxCell id="YFGoI8jdiH5YfzTE92s3-53" value="" style="shape=partialRectangle;collapsible=0;dropTarget=0;pointerEvents=0;fillColor=none;points=[[0,0.5],[1,0.5]];portConstraint=eastwest;top=0;left=0;right=0;bottom=1;" vertex="1" parent="YFGoI8jdiH5YfzTE92s3-52">
          <mxGeometry y="30" width="159.75" height="30" as="geometry" />
        </mxCell>
        <mxCell id="YFGoI8jdiH5YfzTE92s3-54" value="FK" style="shape=partialRectangle;overflow=hidden;connectable=0;fillColor=none;top=0;left=0;bottom=0;right=0;fontStyle=1;" vertex="1" parent="YFGoI8jdiH5YfzTE92s3-53">
          <mxGeometry width="30" height="30" as="geometry">
            <mxRectangle width="30" height="30" as="alternateBounds" />
          </mxGeometry>
        </mxCell>
        <mxCell id="YFGoI8jdiH5YfzTE92s3-55" value="book_id" style="shape=partialRectangle;overflow=hidden;connectable=0;fillColor=none;top=0;left=0;bottom=0;right=0;align=left;spacingLeft=6;fontStyle=5;" vertex="1" parent="YFGoI8jdiH5YfzTE92s3-53">
          <mxGeometry x="30" width="129.75" height="30" as="geometry">
            <mxRectangle width="129.75" height="30" as="alternateBounds" />
          </mxGeometry>
        </mxCell>
        <mxCell id="YFGoI8jdiH5YfzTE92s3-56" value="" style="shape=partialRectangle;collapsible=0;dropTarget=0;pointerEvents=0;fillColor=none;points=[[0,0.5],[1,0.5]];portConstraint=eastwest;top=0;left=0;right=0;bottom=0;" vertex="1" parent="YFGoI8jdiH5YfzTE92s3-52">
          <mxGeometry y="60" width="159.75" height="30" as="geometry" />
        </mxCell>
        <mxCell id="YFGoI8jdiH5YfzTE92s3-57" value="" style="shape=partialRectangle;overflow=hidden;connectable=0;fillColor=none;top=0;left=0;bottom=0;right=0;" vertex="1" parent="YFGoI8jdiH5YfzTE92s3-56">
          <mxGeometry width="30" height="30" as="geometry">
            <mxRectangle width="30" height="30" as="alternateBounds" />
          </mxGeometry>
        </mxCell>
        <mxCell id="YFGoI8jdiH5YfzTE92s3-58" value="char_name - str" style="shape=partialRectangle;overflow=hidden;connectable=0;fillColor=none;top=0;left=0;bottom=0;right=0;align=left;spacingLeft=6;" vertex="1" parent="YFGoI8jdiH5YfzTE92s3-56">
          <mxGeometry x="30" width="129.75" height="30" as="geometry">
            <mxRectangle width="129.75" height="30" as="alternateBounds" />
          </mxGeometry>
        </mxCell>
        <mxCell id="YFGoI8jdiH5YfzTE92s3-62" value="" style="edgeStyle=entityRelationEdgeStyle;endArrow=ERzeroToMany;startArrow=ERone;endFill=1;startFill=0;entryX=0;entryY=0.5;entryDx=0;entryDy=0;" edge="1" parent="1" target="YFGoI8jdiH5YfzTE92s3-53">
          <mxGeometry width="100" height="100" relative="1" as="geometry">
            <mxPoint x="699" y="135" as="sourcePoint" />
            <mxPoint x="708" y="49" as="targetPoint" />
          </mxGeometry>
        </mxCell>
        <mxCell id="YFGoI8jdiH5YfzTE92s3-65" value="book_series" style="shape=table;startSize=30;container=1;collapsible=1;childLayout=tableLayout;fixedRows=1;rowLines=0;fontStyle=1;align=center;resizeLast=1;" vertex="1" parent="1">
          <mxGeometry x="770" y="180.75" width="169.75" height="100" as="geometry" />
        </mxCell>
        <mxCell id="YFGoI8jdiH5YfzTE92s3-66" value="" style="shape=partialRectangle;collapsible=0;dropTarget=0;pointerEvents=0;fillColor=none;points=[[0,0.5],[1,0.5]];portConstraint=eastwest;top=0;left=0;right=0;bottom=1;" vertex="1" parent="YFGoI8jdiH5YfzTE92s3-65">
          <mxGeometry y="30" width="169.75" height="30" as="geometry" />
        </mxCell>
        <mxCell id="YFGoI8jdiH5YfzTE92s3-67" value="FK" style="shape=partialRectangle;overflow=hidden;connectable=0;fillColor=none;top=0;left=0;bottom=0;right=0;fontStyle=0;" vertex="1" parent="YFGoI8jdiH5YfzTE92s3-66">
          <mxGeometry width="30" height="30" as="geometry">
            <mxRectangle width="30" height="30" as="alternateBounds" />
          </mxGeometry>
        </mxCell>
        <mxCell id="YFGoI8jdiH5YfzTE92s3-68" value="series_id" style="shape=partialRectangle;overflow=hidden;connectable=0;fillColor=none;top=0;left=0;bottom=0;right=0;align=left;spacingLeft=6;fontStyle=4;" vertex="1" parent="YFGoI8jdiH5YfzTE92s3-66">
          <mxGeometry x="30" width="139.75" height="30" as="geometry">
            <mxRectangle width="139.75" height="30" as="alternateBounds" />
          </mxGeometry>
        </mxCell>
        <mxCell id="YFGoI8jdiH5YfzTE92s3-69" value="" style="shape=partialRectangle;collapsible=0;dropTarget=0;pointerEvents=0;fillColor=none;points=[[0,0.5],[1,0.5]];portConstraint=eastwest;top=0;left=0;right=0;bottom=0;" vertex="1" parent="YFGoI8jdiH5YfzTE92s3-65">
          <mxGeometry y="60" width="169.75" height="30" as="geometry" />
        </mxCell>
        <mxCell id="YFGoI8jdiH5YfzTE92s3-70" value="FK" style="shape=partialRectangle;overflow=hidden;connectable=0;fillColor=none;top=0;left=0;bottom=0;right=0;" vertex="1" parent="YFGoI8jdiH5YfzTE92s3-69">
          <mxGeometry width="30" height="30" as="geometry">
            <mxRectangle width="30" height="30" as="alternateBounds" />
          </mxGeometry>
        </mxCell>
        <mxCell id="YFGoI8jdiH5YfzTE92s3-71" value="book_id" style="shape=partialRectangle;overflow=hidden;connectable=0;fillColor=none;top=0;left=0;bottom=0;right=0;align=left;spacingLeft=6;" vertex="1" parent="YFGoI8jdiH5YfzTE92s3-69">
          <mxGeometry x="30" width="139.75" height="30" as="geometry">
            <mxRectangle width="139.75" height="30" as="alternateBounds" />
          </mxGeometry>
        </mxCell>
        <mxCell id="YFGoI8jdiH5YfzTE92s3-79" value="" style="edgeStyle=entityRelationEdgeStyle;endArrow=ERzeroToMany;startArrow=ERone;endFill=1;startFill=0;entryX=1;entryY=0.5;entryDx=0;entryDy=0;exitX=0;exitY=0.5;exitDx=0;exitDy=0;" edge="1" parent="1" source="YFGoI8jdiH5YfzTE92s3-69" target="C-vyLk0tnHw3VtMMgP7b-3">
          <mxGeometry width="100" height="100" relative="1" as="geometry">
            <mxPoint x="950" y="236" as="sourcePoint" />
            <mxPoint x="1042" y="263" as="targetPoint" />
          </mxGeometry>
        </mxCell>
        <mxCell id="YFGoI8jdiH5YfzTE92s3-81" value="" style="group" vertex="1" connectable="0" parent="1">
          <mxGeometry x="187" y="220" width="197.75" height="125" as="geometry" />
        </mxCell>
        <mxCell id="YFGoI8jdiH5YfzTE92s3-19" value="book_award" style="shape=table;startSize=30;container=1;collapsible=1;childLayout=tableLayout;fixedRows=1;rowLines=0;fontStyle=1;align=center;resizeLast=1;" vertex="1" parent="YFGoI8jdiH5YfzTE92s3-81">
          <mxGeometry width="197.75" height="125" as="geometry" />
        </mxCell>
        <mxCell id="YFGoI8jdiH5YfzTE92s3-20" value="" style="shape=partialRectangle;collapsible=0;dropTarget=0;pointerEvents=0;fillColor=none;points=[[0,0.5],[1,0.5]];portConstraint=eastwest;top=0;left=0;right=0;bottom=1;" vertex="1" parent="YFGoI8jdiH5YfzTE92s3-19">
          <mxGeometry y="30" width="197.75" height="30" as="geometry" />
        </mxCell>
        <mxCell id="YFGoI8jdiH5YfzTE92s3-21" value="FK" style="shape=partialRectangle;overflow=hidden;connectable=0;fillColor=none;top=0;left=0;bottom=0;right=0;fontStyle=0;" vertex="1" parent="YFGoI8jdiH5YfzTE92s3-20">
          <mxGeometry width="30" height="30" as="geometry">
            <mxRectangle width="30" height="30" as="alternateBounds" />
          </mxGeometry>
        </mxCell>
        <mxCell id="YFGoI8jdiH5YfzTE92s3-22" value="award_id" style="shape=partialRectangle;overflow=hidden;connectable=0;fillColor=none;top=0;left=0;bottom=0;right=0;align=left;spacingLeft=6;fontStyle=4;" vertex="1" parent="YFGoI8jdiH5YfzTE92s3-20">
          <mxGeometry x="30" width="167.75" height="30" as="geometry">
            <mxRectangle width="167.75" height="30" as="alternateBounds" />
          </mxGeometry>
        </mxCell>
        <mxCell id="YFGoI8jdiH5YfzTE92s3-23" value="" style="shape=partialRectangle;collapsible=0;dropTarget=0;pointerEvents=0;fillColor=none;points=[[0,0.5],[1,0.5]];portConstraint=eastwest;top=0;left=0;right=0;bottom=0;" vertex="1" parent="YFGoI8jdiH5YfzTE92s3-19">
          <mxGeometry y="60" width="197.75" height="33" as="geometry" />
        </mxCell>
        <mxCell id="YFGoI8jdiH5YfzTE92s3-24" value="FK" style="shape=partialRectangle;overflow=hidden;connectable=0;fillColor=none;top=0;left=0;bottom=0;right=0;" vertex="1" parent="YFGoI8jdiH5YfzTE92s3-23">
          <mxGeometry width="30" height="33" as="geometry">
            <mxRectangle width="30" height="33" as="alternateBounds" />
          </mxGeometry>
        </mxCell>
        <mxCell id="YFGoI8jdiH5YfzTE92s3-25" value="book_id" style="shape=partialRectangle;overflow=hidden;connectable=0;fillColor=none;top=0;left=0;bottom=0;right=0;align=left;spacingLeft=6;" vertex="1" parent="YFGoI8jdiH5YfzTE92s3-23">
          <mxGeometry x="30" width="167.75" height="33" as="geometry">
            <mxRectangle width="167.75" height="33" as="alternateBounds" />
          </mxGeometry>
        </mxCell>
        <mxCell id="YFGoI8jdiH5YfzTE92s3-63" value="year - int" style="shape=partialRectangle;overflow=hidden;connectable=0;fillColor=none;top=0;left=0;bottom=0;right=0;align=left;spacingLeft=6;" vertex="1" parent="YFGoI8jdiH5YfzTE92s3-81">
          <mxGeometry x="30" y="84" width="167.75" height="30" as="geometry">
            <mxRectangle width="167.75" height="30" as="alternateBounds" />
          </mxGeometry>
        </mxCell>
      </root>
    </mxGraphModel>
  </diagram>
</mxfile>
